<mxfile host="app.diagrams.net" agent="Mozilla/5.0 (Macintosh; Intel Mac OS X 10_15_7) AppleWebKit/537.36 (KHTML, like Gecko) Chrome/137.0.0.0 Safari/537.36" version="27.2.0">
  <diagram name="第 1 页" id="wFmKwV2rhvR8Owtk0ri_">
    <mxGraphModel dx="1354" dy="1064" grid="1" gridSize="10" guides="1" tooltips="1" connect="1" arrows="1" fold="1" page="1" pageScale="1" pageWidth="827" pageHeight="1169" math="0" shadow="0">
      <root>
        <mxCell id="0" />
        <mxCell id="1" parent="0" />
        <mxCell id="1XKt61dq1AAJdnpW8KQM-6" style="edgeStyle=orthogonalEdgeStyle;rounded=0;orthogonalLoop=1;jettySize=auto;html=1;exitX=1;exitY=0.5;exitDx=0;exitDy=0;entryX=0;entryY=0.5;entryDx=0;entryDy=0;" edge="1" parent="1" source="-F368aWE17oyrcBu3Lhg-1" target="1XKt61dq1AAJdnpW8KQM-5">
          <mxGeometry relative="1" as="geometry" />
        </mxCell>
        <mxCell id="1XKt61dq1AAJdnpW8KQM-7" value="&lt;div style=&quot;font-size: 12px; text-wrap-mode: wrap; background-color: rgb(236, 236, 236);&quot;&gt;&lt;span style=&quot;font-size: 11px; text-wrap-mode: nowrap; background-color: rgb(255, 255, 255);&quot;&gt;checkpoint.tar&lt;/span&gt;&lt;/div&gt;&lt;div style=&quot;font-size: 12px; text-wrap-mode: wrap; background-color: rgb(236, 236, 236);&quot;&gt;&lt;span style=&quot;font-size: 11px; text-wrap-mode: nowrap; background-color: rgb(255, 255, 255);&quot;&gt;rootfs.image&lt;/span&gt;&lt;/div&gt;" style="edgeLabel;html=1;align=center;verticalAlign=middle;resizable=0;points=[];" vertex="1" connectable="0" parent="1XKt61dq1AAJdnpW8KQM-6">
          <mxGeometry y="2" relative="1" as="geometry">
            <mxPoint x="-6" y="2" as="offset" />
          </mxGeometry>
        </mxCell>
        <mxCell id="-F368aWE17oyrcBu3Lhg-1" value="kubelet：&lt;span style=&quot;font-size: 11px; text-wrap-mode: nowrap; background-color: rgb(255, 255, 255);&quot;&gt;CheckpointContainer&amp;nbsp;&lt;/span&gt;&lt;div style=&quot;font-size: 11px; text-wrap-mode: nowrap;&quot;&gt;RPC 调用&lt;/div&gt;" style="rounded=0;whiteSpace=wrap;html=1;" parent="1" vertex="1">
          <mxGeometry x="160" y="240" width="200" height="60" as="geometry" />
        </mxCell>
        <mxCell id="-F368aWE17oyrcBu3Lhg-2" value="&lt;font style=&quot;font-size: 12px;&quot;&gt;CRI：&lt;span style=&quot;background-color: transparent; color: light-dark(rgb(0, 0, 0), rgb(255, 255, 255));&quot;&gt;容器运行时 (CRI-O/ctrd)&lt;/span&gt;&lt;/font&gt;" style="rounded=0;whiteSpace=wrap;html=1;" parent="1" vertex="1">
          <mxGeometry x="160" y="360" width="200" height="60" as="geometry" />
        </mxCell>
        <mxCell id="-F368aWE17oyrcBu3Lhg-3" value="&lt;font&gt;runc：&lt;span style=&quot;background-color: transparent; color: light-dark(rgb(0, 0, 0), rgb(255, 255, 255));&quot;&gt;容器运行时引擎&lt;/span&gt;&lt;/font&gt;" style="rounded=0;whiteSpace=wrap;html=1;" parent="1" vertex="1">
          <mxGeometry x="160" y="480" width="200" height="60" as="geometry" />
        </mxCell>
        <mxCell id="-F368aWE17oyrcBu3Lhg-4" value="&lt;font style=&quot;font-size: 12px;&quot;&gt;CRIU：&lt;span style=&quot;background-color: transparent; color: light-dark(rgb(0, 0, 0), rgb(255, 255, 255));&quot;&gt;冻结进程状态&lt;/span&gt;&lt;/font&gt;" style="rounded=0;whiteSpace=wrap;html=1;" parent="1" vertex="1">
          <mxGeometry x="160" y="600" width="200" height="60" as="geometry" />
        </mxCell>
        <mxCell id="-F368aWE17oyrcBu3Lhg-5" value="生成：pages.img/files.img/core.img" style="rounded=0;whiteSpace=wrap;html=1;" parent="1" vertex="1">
          <mxGeometry x="160" y="720" width="200" height="60" as="geometry" />
        </mxCell>
        <mxCell id="-F368aWE17oyrcBu3Lhg-6" value="" style="endArrow=classic;html=1;rounded=0;entryX=0.3;entryY=0;entryDx=0;entryDy=0;entryPerimeter=0;" parent="1" edge="1">
          <mxGeometry width="50" height="50" relative="1" as="geometry">
            <mxPoint x="200" y="300" as="sourcePoint" />
            <mxPoint x="200" y="360" as="targetPoint" />
          </mxGeometry>
        </mxCell>
        <mxCell id="-F368aWE17oyrcBu3Lhg-19" value="cnt_id, location" style="edgeLabel;html=1;align=center;verticalAlign=middle;resizable=0;points=[];" parent="-F368aWE17oyrcBu3Lhg-6" vertex="1" connectable="0">
          <mxGeometry x="-0.15" y="-2" relative="1" as="geometry">
            <mxPoint as="offset" />
          </mxGeometry>
        </mxCell>
        <mxCell id="-F368aWE17oyrcBu3Lhg-7" value="" style="endArrow=classic;html=1;rounded=0;entryX=0.3;entryY=0;entryDx=0;entryDy=0;entryPerimeter=0;" parent="1" edge="1">
          <mxGeometry width="50" height="50" relative="1" as="geometry">
            <mxPoint x="200" y="420" as="sourcePoint" />
            <mxPoint x="200" y="480" as="targetPoint" />
          </mxGeometry>
        </mxCell>
        <mxCell id="-F368aWE17oyrcBu3Lhg-21" value="runc checkpoint &amp;lt;cnt_id&amp;gt;" style="edgeLabel;html=1;align=center;verticalAlign=middle;resizable=0;points=[];" parent="-F368aWE17oyrcBu3Lhg-7" vertex="1" connectable="0">
          <mxGeometry x="-0.2167" relative="1" as="geometry">
            <mxPoint y="4" as="offset" />
          </mxGeometry>
        </mxCell>
        <mxCell id="-F368aWE17oyrcBu3Lhg-8" value="" style="endArrow=classic;html=1;rounded=0;entryX=0.3;entryY=0;entryDx=0;entryDy=0;entryPerimeter=0;" parent="1" edge="1">
          <mxGeometry width="50" height="50" relative="1" as="geometry">
            <mxPoint x="200" y="540" as="sourcePoint" />
            <mxPoint x="200" y="600" as="targetPoint" />
          </mxGeometry>
        </mxCell>
        <mxCell id="-F368aWE17oyrcBu3Lhg-23" value="criu dump /checkpoint" style="edgeLabel;html=1;align=center;verticalAlign=middle;resizable=0;points=[];" parent="-F368aWE17oyrcBu3Lhg-8" vertex="1" connectable="0">
          <mxGeometry x="-0.05" y="-1" relative="1" as="geometry">
            <mxPoint as="offset" />
          </mxGeometry>
        </mxCell>
        <mxCell id="-F368aWE17oyrcBu3Lhg-9" value="" style="endArrow=classic;html=1;rounded=0;entryX=0.3;entryY=0;entryDx=0;entryDy=0;entryPerimeter=0;" parent="1" edge="1">
          <mxGeometry width="50" height="50" relative="1" as="geometry">
            <mxPoint x="200" y="660" as="sourcePoint" />
            <mxPoint x="200" y="720" as="targetPoint" />
          </mxGeometry>
        </mxCell>
        <mxCell id="-F368aWE17oyrcBu3Lhg-25" value="rootfs&lt;span style=&quot;background-color: light-dark(#ffffff, var(--ge-dark-color, #121212)); color: light-dark(rgb(0, 0, 0), rgb(255, 255, 255));&quot;&gt;写入层&lt;/span&gt;&lt;div&gt;变更&lt;/div&gt;" style="edgeLabel;html=1;align=center;verticalAlign=middle;resizable=0;points=[];" parent="-F368aWE17oyrcBu3Lhg-9" vertex="1" connectable="0">
          <mxGeometry x="-0.05" y="-1" relative="1" as="geometry">
            <mxPoint as="offset" />
          </mxGeometry>
        </mxCell>
        <mxCell id="-F368aWE17oyrcBu3Lhg-10" value="" style="endArrow=classic;html=1;rounded=0;entryX=1;entryY=0.75;entryDx=0;entryDy=0;" parent="1" edge="1">
          <mxGeometry width="50" height="50" relative="1" as="geometry">
            <mxPoint x="320" y="360" as="sourcePoint" />
            <mxPoint x="320" y="300" as="targetPoint" />
          </mxGeometry>
        </mxCell>
        <mxCell id="-F368aWE17oyrcBu3Lhg-20" value="checkpoint.tar" style="edgeLabel;html=1;align=center;verticalAlign=middle;resizable=0;points=[];" parent="-F368aWE17oyrcBu3Lhg-10" vertex="1" connectable="0">
          <mxGeometry x="0.1167" y="1" relative="1" as="geometry">
            <mxPoint x="11" y="3" as="offset" />
          </mxGeometry>
        </mxCell>
        <mxCell id="-F368aWE17oyrcBu3Lhg-11" style="edgeStyle=orthogonalEdgeStyle;rounded=0;orthogonalLoop=1;jettySize=auto;html=1;exitX=0.5;exitY=1;exitDx=0;exitDy=0;" parent="1" source="-F368aWE17oyrcBu3Lhg-1" target="-F368aWE17oyrcBu3Lhg-1" edge="1">
          <mxGeometry relative="1" as="geometry" />
        </mxCell>
        <mxCell id="-F368aWE17oyrcBu3Lhg-12" value="" style="endArrow=classic;html=1;rounded=0;entryX=1;entryY=0.75;entryDx=0;entryDy=0;" parent="1" edge="1">
          <mxGeometry width="50" height="50" relative="1" as="geometry">
            <mxPoint x="320" y="480" as="sourcePoint" />
            <mxPoint x="320" y="420" as="targetPoint" />
          </mxGeometry>
        </mxCell>
        <mxCell id="-F368aWE17oyrcBu3Lhg-22" value="spec.dump等&lt;div&gt;&lt;span style=&quot;color: light-dark(rgb(0, 0, 0), rgb(255, 255, 255));&quot;&gt;checkpoint /&lt;/span&gt;&lt;/div&gt;" style="edgeLabel;html=1;align=center;verticalAlign=middle;resizable=0;points=[];" parent="-F368aWE17oyrcBu3Lhg-12" vertex="1" connectable="0">
          <mxGeometry x="-0.0167" y="1" relative="1" as="geometry">
            <mxPoint y="-2" as="offset" />
          </mxGeometry>
        </mxCell>
        <mxCell id="-F368aWE17oyrcBu3Lhg-13" value="" style="endArrow=classic;html=1;rounded=0;entryX=1;entryY=0.75;entryDx=0;entryDy=0;" parent="1" edge="1">
          <mxGeometry width="50" height="50" relative="1" as="geometry">
            <mxPoint x="320" y="600" as="sourcePoint" />
            <mxPoint x="320" y="540" as="targetPoint" />
          </mxGeometry>
        </mxCell>
        <mxCell id="-F368aWE17oyrcBu3Lhg-52" value="&lt;span style=&quot;color: rgba(0, 0, 0, 0); font-family: monospace; font-size: 0px; text-align: start; background-color: rgb(236, 236, 236);&quot;&gt;%3CmxGraphModel%3E%3Croot%3E%3CmxCell%20id%3D%220%22%2F%3E%3CmxCell%20id%3D%221%22%20parent%3D%220%22%2F%3E%3CmxCell%20id%3D%222%22%20value%3D%22checkpoint%20path%22%20style%3D%22edgeLabel%3Bhtml%3D1%3Balign%3Dcenter%3BverticalAlign%3Dmiddle%3Bresizable%3D0%3Bpoints%3D%5B%5D%3B%22%20vertex%3D%221%22%20connectable%3D%220%22%20parent%3D%221%22%3E%3CmxGeometry%20x%3D%22323%22%20y%3D%22687%22%20as%3D%22geometry%22%2F%3E%3C%2FmxCell%3E%3C%2Froot%3E%3C%2FmxGraphModel%3E&lt;/span&gt;" style="edgeLabel;html=1;align=center;verticalAlign=middle;resizable=0;points=[];" parent="-F368aWE17oyrcBu3Lhg-13" vertex="1" connectable="0">
          <mxGeometry x="0.0167" relative="1" as="geometry">
            <mxPoint y="1" as="offset" />
          </mxGeometry>
        </mxCell>
        <mxCell id="-F368aWE17oyrcBu3Lhg-53" value="进程树/TCP等状态" style="edgeLabel;html=1;align=center;verticalAlign=middle;resizable=0;points=[];" parent="-F368aWE17oyrcBu3Lhg-13" vertex="1" connectable="0">
          <mxGeometry x="-0.0167" y="-1" relative="1" as="geometry">
            <mxPoint y="-2" as="offset" />
          </mxGeometry>
        </mxCell>
        <mxCell id="-F368aWE17oyrcBu3Lhg-14" value="" style="endArrow=classic;html=1;rounded=0;entryX=1;entryY=0.75;entryDx=0;entryDy=0;" parent="1" edge="1">
          <mxGeometry width="50" height="50" relative="1" as="geometry">
            <mxPoint x="320" y="720" as="sourcePoint" />
            <mxPoint x="320" y="660" as="targetPoint" />
          </mxGeometry>
        </mxCell>
        <mxCell id="-F368aWE17oyrcBu3Lhg-51" value="checkpoint /" style="edgeLabel;html=1;align=center;verticalAlign=middle;resizable=0;points=[];" parent="-F368aWE17oyrcBu3Lhg-14" vertex="1" connectable="0">
          <mxGeometry x="0.1167" y="-3" relative="1" as="geometry">
            <mxPoint y="1" as="offset" />
          </mxGeometry>
        </mxCell>
        <mxCell id="-F368aWE17oyrcBu3Lhg-15" value="checkpoint" style="text;html=1;align=center;verticalAlign=middle;whiteSpace=wrap;rounded=0;" parent="1" vertex="1">
          <mxGeometry x="40" y="290" width="60" height="30" as="geometry" />
        </mxCell>
        <mxCell id="-F368aWE17oyrcBu3Lhg-27" value="kubelet：&lt;span style=&quot;font-size: 11px; text-wrap-mode: nowrap; background-color: rgb(255, 255, 255);&quot;&gt;CreateContainer&amp;nbsp;&lt;/span&gt;&lt;div style=&quot;font-size: 11px; text-wrap-mode: nowrap;&quot;&gt;RPC 调用&lt;/div&gt;" style="rounded=0;whiteSpace=wrap;html=1;" parent="1" vertex="1">
          <mxGeometry x="780" y="240" width="200" height="60" as="geometry" />
        </mxCell>
        <mxCell id="-F368aWE17oyrcBu3Lhg-28" value="&lt;font style=&quot;font-size: 12px;&quot;&gt;CRI：&lt;span style=&quot;background-color: transparent; color: light-dark(rgb(0, 0, 0), rgb(255, 255, 255));&quot;&gt;解析配置参数&lt;/span&gt;&lt;/font&gt;&lt;div&gt;&lt;font style=&quot;font-size: 12px;&quot;&gt;&lt;span style=&quot;background-color: transparent; color: light-dark(rgb(0, 0, 0), rgb(255, 255, 255));&quot;&gt;（checkpoint.tar和rootfs信息）&lt;/span&gt;&lt;/font&gt;&lt;/div&gt;" style="rounded=0;whiteSpace=wrap;html=1;" parent="1" vertex="1">
          <mxGeometry x="780" y="360" width="200" height="60" as="geometry" />
        </mxCell>
        <mxCell id="-F368aWE17oyrcBu3Lhg-29" value="&lt;font&gt;runc：&lt;span style=&quot;background-color: transparent; color: light-dark(rgb(0, 0, 0), rgb(255, 255, 255));&quot;&gt;容器运行时引擎&lt;/span&gt;&lt;/font&gt;" style="rounded=0;whiteSpace=wrap;html=1;" parent="1" vertex="1">
          <mxGeometry x="780" y="480" width="200" height="60" as="geometry" />
        </mxCell>
        <mxCell id="-F368aWE17oyrcBu3Lhg-30" value="&lt;font style=&quot;font-size: 12px;&quot;&gt;CRIU：&lt;span style=&quot;background-color: transparent; color: light-dark(rgb(0, 0, 0), rgb(255, 255, 255));&quot;&gt;恢复进程状态&lt;/span&gt;&lt;/font&gt;" style="rounded=0;whiteSpace=wrap;html=1;" parent="1" vertex="1">
          <mxGeometry x="780" y="600" width="200" height="60" as="geometry" />
        </mxCell>
        <mxCell id="-F368aWE17oyrcBu3Lhg-31" value="" style="rounded=0;whiteSpace=wrap;html=1;" parent="1" vertex="1">
          <mxGeometry x="780" y="720" width="200" height="60" as="geometry" />
        </mxCell>
        <mxCell id="-F368aWE17oyrcBu3Lhg-32" value="" style="endArrow=classic;html=1;rounded=0;entryX=0.3;entryY=0;entryDx=0;entryDy=0;entryPerimeter=0;" parent="1" edge="1">
          <mxGeometry width="50" height="50" relative="1" as="geometry">
            <mxPoint x="820" y="300" as="sourcePoint" />
            <mxPoint x="820" y="360" as="targetPoint" />
          </mxGeometry>
        </mxCell>
        <mxCell id="-F368aWE17oyrcBu3Lhg-33" value="checkpoint-image" style="edgeLabel;html=1;align=center;verticalAlign=middle;resizable=0;points=[];" parent="-F368aWE17oyrcBu3Lhg-32" vertex="1" connectable="0">
          <mxGeometry x="-0.15" y="-2" relative="1" as="geometry">
            <mxPoint as="offset" />
          </mxGeometry>
        </mxCell>
        <mxCell id="-F368aWE17oyrcBu3Lhg-34" value="" style="endArrow=classic;html=1;rounded=0;entryX=0.3;entryY=0;entryDx=0;entryDy=0;entryPerimeter=0;" parent="1" edge="1">
          <mxGeometry width="50" height="50" relative="1" as="geometry">
            <mxPoint x="820" y="420" as="sourcePoint" />
            <mxPoint x="820" y="480" as="targetPoint" />
          </mxGeometry>
        </mxCell>
        <mxCell id="-F368aWE17oyrcBu3Lhg-35" value="runc create --restore" style="edgeLabel;html=1;align=center;verticalAlign=middle;resizable=0;points=[];" parent="-F368aWE17oyrcBu3Lhg-34" vertex="1" connectable="0">
          <mxGeometry x="-0.2167" relative="1" as="geometry">
            <mxPoint y="2" as="offset" />
          </mxGeometry>
        </mxCell>
        <mxCell id="-F368aWE17oyrcBu3Lhg-36" value="" style="endArrow=classic;html=1;rounded=0;entryX=0.3;entryY=0;entryDx=0;entryDy=0;entryPerimeter=0;" parent="1" edge="1">
          <mxGeometry width="50" height="50" relative="1" as="geometry">
            <mxPoint x="820" y="540" as="sourcePoint" />
            <mxPoint x="820" y="600" as="targetPoint" />
          </mxGeometry>
        </mxCell>
        <mxCell id="-F368aWE17oyrcBu3Lhg-37" value="criu restore /checkpoint" style="edgeLabel;html=1;align=center;verticalAlign=middle;resizable=0;points=[];" parent="-F368aWE17oyrcBu3Lhg-36" vertex="1" connectable="0">
          <mxGeometry x="-0.05" y="-1" relative="1" as="geometry">
            <mxPoint as="offset" />
          </mxGeometry>
        </mxCell>
        <mxCell id="-F368aWE17oyrcBu3Lhg-38" value="" style="endArrow=classic;html=1;rounded=0;entryX=0.3;entryY=0;entryDx=0;entryDy=0;entryPerimeter=0;" parent="1" edge="1">
          <mxGeometry width="50" height="50" relative="1" as="geometry">
            <mxPoint x="820" y="660" as="sourcePoint" />
            <mxPoint x="820" y="720" as="targetPoint" />
          </mxGeometry>
        </mxCell>
        <mxCell id="-F368aWE17oyrcBu3Lhg-40" value="" style="endArrow=classic;html=1;rounded=0;entryX=1;entryY=0.75;entryDx=0;entryDy=0;" parent="1" edge="1">
          <mxGeometry width="50" height="50" relative="1" as="geometry">
            <mxPoint x="940" y="360" as="sourcePoint" />
            <mxPoint x="940" y="300" as="targetPoint" />
          </mxGeometry>
        </mxCell>
        <mxCell id="1XKt61dq1AAJdnpW8KQM-1" value="cnt_id" style="edgeLabel;html=1;align=center;verticalAlign=middle;resizable=0;points=[];" vertex="1" connectable="0" parent="-F368aWE17oyrcBu3Lhg-40">
          <mxGeometry x="0.0833" y="3" relative="1" as="geometry">
            <mxPoint as="offset" />
          </mxGeometry>
        </mxCell>
        <mxCell id="-F368aWE17oyrcBu3Lhg-42" style="edgeStyle=orthogonalEdgeStyle;rounded=0;orthogonalLoop=1;jettySize=auto;html=1;exitX=0.5;exitY=1;exitDx=0;exitDy=0;" parent="1" source="-F368aWE17oyrcBu3Lhg-27" target="-F368aWE17oyrcBu3Lhg-27" edge="1">
          <mxGeometry relative="1" as="geometry" />
        </mxCell>
        <mxCell id="-F368aWE17oyrcBu3Lhg-43" value="" style="endArrow=classic;html=1;rounded=0;entryX=1;entryY=0.75;entryDx=0;entryDy=0;" parent="1" edge="1">
          <mxGeometry width="50" height="50" relative="1" as="geometry">
            <mxPoint x="940" y="480" as="sourcePoint" />
            <mxPoint x="940" y="420" as="targetPoint" />
          </mxGeometry>
        </mxCell>
        <mxCell id="-F368aWE17oyrcBu3Lhg-44" value="&lt;div&gt;返回运行cnt_id&lt;/div&gt;" style="edgeLabel;html=1;align=center;verticalAlign=middle;resizable=0;points=[];" parent="-F368aWE17oyrcBu3Lhg-43" vertex="1" connectable="0">
          <mxGeometry x="-0.0167" y="1" relative="1" as="geometry">
            <mxPoint as="offset" />
          </mxGeometry>
        </mxCell>
        <mxCell id="-F368aWE17oyrcBu3Lhg-45" value="" style="endArrow=classic;html=1;rounded=0;entryX=1;entryY=0.75;entryDx=0;entryDy=0;" parent="1" edge="1">
          <mxGeometry width="50" height="50" relative="1" as="geometry">
            <mxPoint x="940" y="600" as="sourcePoint" />
            <mxPoint x="940" y="540" as="targetPoint" />
          </mxGeometry>
        </mxCell>
        <mxCell id="-F368aWE17oyrcBu3Lhg-46" value="重建进程树" style="edgeLabel;html=1;align=center;verticalAlign=middle;resizable=0;points=[];" parent="-F368aWE17oyrcBu3Lhg-45" vertex="1" connectable="0">
          <mxGeometry x="0.0167" y="-1" relative="1" as="geometry">
            <mxPoint y="1" as="offset" />
          </mxGeometry>
        </mxCell>
        <mxCell id="-F368aWE17oyrcBu3Lhg-47" value="" style="endArrow=classic;html=1;rounded=0;entryX=1;entryY=0.75;entryDx=0;entryDy=0;" parent="1" edge="1">
          <mxGeometry width="50" height="50" relative="1" as="geometry">
            <mxPoint x="940" y="720" as="sourcePoint" />
            <mxPoint x="940" y="660" as="targetPoint" />
          </mxGeometry>
        </mxCell>
        <mxCell id="-F368aWE17oyrcBu3Lhg-48" value="反序列化恢复" style="edgeLabel;html=1;align=center;verticalAlign=middle;resizable=0;points=[];" parent="-F368aWE17oyrcBu3Lhg-47" vertex="1" connectable="0">
          <mxGeometry x="0.05" relative="1" as="geometry">
            <mxPoint y="1" as="offset" />
          </mxGeometry>
        </mxCell>
        <mxCell id="-F368aWE17oyrcBu3Lhg-49" value="restore" style="text;html=1;align=center;verticalAlign=middle;whiteSpace=wrap;rounded=0;" parent="1" vertex="1">
          <mxGeometry x="1040" y="250" width="60" height="30" as="geometry" />
        </mxCell>
        <mxCell id="-F368aWE17oyrcBu3Lhg-50" value="restore" style="text;html=1;align=center;verticalAlign=middle;whiteSpace=wrap;rounded=0;" parent="1" vertex="1">
          <mxGeometry x="1034" y="680" width="60" height="30" as="geometry" />
        </mxCell>
        <mxCell id="1XKt61dq1AAJdnpW8KQM-9" style="edgeStyle=orthogonalEdgeStyle;rounded=0;orthogonalLoop=1;jettySize=auto;html=1;exitX=1;exitY=0.5;exitDx=0;exitDy=0;entryX=0;entryY=0.5;entryDx=0;entryDy=0;" edge="1" parent="1" source="1XKt61dq1AAJdnpW8KQM-4" target="-F368aWE17oyrcBu3Lhg-27">
          <mxGeometry relative="1" as="geometry" />
        </mxCell>
        <mxCell id="1XKt61dq1AAJdnpW8KQM-4" value="&lt;div&gt;&lt;span style=&quot;font-size: 11px; text-wrap-mode: nowrap; background-color: rgb(255, 255, 255);&quot;&gt;buildah&lt;/span&gt;&lt;/div&gt;" style="rounded=0;whiteSpace=wrap;html=1;" vertex="1" parent="1">
          <mxGeometry x="690" y="240" width="50" height="60" as="geometry" />
        </mxCell>
        <mxCell id="1XKt61dq1AAJdnpW8KQM-8" style="edgeStyle=orthogonalEdgeStyle;rounded=0;orthogonalLoop=1;jettySize=auto;html=1;entryX=0;entryY=0.5;entryDx=0;entryDy=0;" edge="1" parent="1" source="1XKt61dq1AAJdnpW8KQM-5" target="1XKt61dq1AAJdnpW8KQM-4">
          <mxGeometry relative="1" as="geometry">
            <mxPoint x="600" y="270" as="sourcePoint" />
          </mxGeometry>
        </mxCell>
        <mxCell id="1XKt61dq1AAJdnpW8KQM-5" value="network:&lt;div&gt;&lt;span style=&quot;background-color: light-dark(rgb(255, 255, 255), rgb(18, 18, 18)); font-size: 11px; text-wrap-mode: nowrap; color: light-dark(rgb(0, 0, 0), rgb(255, 255, 255));&quot;&gt;checkpoint.tar&lt;/span&gt;&lt;div style=&quot;background-color: rgb(236, 236, 236);&quot;&gt;&lt;span style=&quot;font-size: 11px; text-wrap-mode: nowrap; background-color: rgb(255, 255, 255);&quot;&gt;rootfs.image&lt;/span&gt;&lt;/div&gt;&lt;/div&gt;" style="rounded=0;whiteSpace=wrap;html=1;" vertex="1" parent="1">
          <mxGeometry x="480" y="240" width="120" height="60" as="geometry" />
        </mxCell>
      </root>
    </mxGraphModel>
  </diagram>
</mxfile>
